<svg width="27" height="24" viewBox="0 0 27 24" fill="none" xmlns="http://www.w3.org/2000/svg">
<path fill-rule="evenodd" clip-rule="evenodd" d="M0.898541 23.2442C1.27557 23.6883 1.75471 23.7818 2.10033 23.7818C2.41452 23.7818 2.63445 23.6883 2.67373 23.6883C2.70515 23.6883 3.14502 23.5636 3.43564 23.5325C3.47747 23.5325 3.51739 23.5294 3.5587 23.5229C4.96996 23.2988 8.84487 22.7679 15.1157 22.1688C18.9394 21.766 21.6652 21.2331 23.0532 20.917C23.7454 20.7594 24.4809 20.5868 25.1149 20.2675C25.5862 20.0182 26.1596 19.6052 26.3167 18.9429C26.6309 17.6494 25.6805 16.7922 24.6043 16.5039C23.434 16.1844 21.1875 15.7792 19.1295 15.5844L12.7043 14.8286C12.5472 14.7974 8.74549 14.3844 7.89717 14.1974C7.785 14.1696 7.79158 14.008 7.90565 13.9894L7.95849 13.9807C7.96473 13.9797 7.96847 13.9793 7.97474 13.9785C8.16227 13.9559 12.0607 13.3994 16.9538 12.8727C22.0641 12.3435 23.0957 12.154 23.786 12.0219C23.808 12.0177 23.8301 12.0156 23.8526 12.0156C23.872 12.0156 23.8912 12.014 23.9103 12.0108C24.2918 11.947 24.9397 11.8214 25.4605 11.5403C26.0968 11.1896 26.411 10.6831 26.411 9.98961C26.411 9.32727 26.0339 8.85195 25.3348 8.56364C24.73 8.31429 24.0702 8.27532 23.7246 8.24416H23.6303L17.268 7.67532C17.2051 7.67532 9.51526 7.07532 5.24225 5.84416L5.23876 5.84353C5.15664 5.82871 5.15167 5.71282 5.23221 5.69103C5.23887 5.68922 5.24554 5.68788 5.25225 5.68628C5.42297 5.64576 7.71634 5.0047 12.6807 4.36364C12.7436 4.36364 19.7108 3.57662 24.3608 3.41299H24.3923C25.0599 3.41299 25.594 3.22597 25.9082 2.87532C26.3481 2.36883 26.3167 1.73766 26.3167 1.70649C26.3167 1.64416 26.2539 0.249351 24.6358 0.155844C24.4158 0.155844 24.1016 0.124675 23.6853 0.124675C22.892 0.124675 19.9857 0.155844 15.9641 0.506494C11.9424 0.857143 8.30562 1.42597 5.23439 2.15065C3.19142 2.66795 1.96047 3.31414 1.48837 3.66726C1.40668 3.72836 1.3294 3.79426 1.25446 3.86347C1.01642 4.08331 0.484912 4.65052 0.387978 5.40779C0.329977 5.93283 0.48612 6.48443 0.88729 7.01356C0.955251 7.1032 1.02619 7.19143 1.10957 7.26694C1.29699 7.43668 1.74602 7.76823 2.70515 8.15844C5.01446 9.07792 8.4313 9.61558 10.9056 9.8961C11.0178 9.90793 11.0178 10.0713 10.9056 10.0831C10.8427 10.0831 4.07188 10.8701 1.85683 11.9844C0.560784 12.6156 0.372269 13.5351 0.403688 14.0104C0.403688 14.7351 0.874976 15.4364 1.54263 15.7481C2.99577 16.5039 6.60898 17.0727 16.9538 18.187C17.0732 18.1996 17.0746 18.3731 16.9553 18.3875L8.15638 19.4494C8.09354 19.4494 2.80726 20.0494 1.60547 20.6182C1.03207 20.9065 0.686461 21.2805 0.560784 21.7247C0.419397 22.2312 0.545074 22.7377 0.898541 23.2442ZM2.10033 24C1.7233 24 1.18131 23.9065 0.741445 23.3688C0.32514 22.8312 0.199463 22.2623 0.32514 21.7247C0.450817 21.187 0.859267 20.774 1.49551 20.4623C2.72871 19.8935 7.88932 19.2935 8.10925 19.2623C9.18616 19.133 9.18202 17.5188 8.1071 17.3738C3.79807 16.7929 2.32708 16.3972 1.43267 15.9429C0.70217 15.5922 0.199463 14.8286 0.199463 14.0104C0.199463 13.4727 0.387978 12.4909 1.77828 11.7974C2.72871 11.3221 4.56673 10.8779 7.19024 10.4338C7.56366 10.3725 7.5628 9.645 7.19066 9.57633C1.8998 8.60003 0.948395 7.38972 0.867121 7.30909C0.356559 6.7013 0.168044 6.07013 0.230882 5.43896C0.297251 4.88755 0.567339 4.43393 0.816729 4.12401C1.08558 3.7899 1.43952 3.5223 1.80974 3.30587C2.38522 2.96946 3.45932 2.45963 5.20297 2.02597C8.30562 1.3013 11.9424 0.732468 15.9641 0.381818C20.0093 0.0311688 22.9234 0 23.7168 0C24.1252 0 24.4472 0 24.6672 0.0311688C25.6176 0.0935065 26.0575 0.537662 26.2774 0.950649C26.4974 1.36364 26.5288 1.73766 26.5288 1.77662C26.5288 1.83896 26.5602 2.53247 26.0575 3.07013C25.6805 3.48312 25.1071 3.67013 24.3766 3.67013H24.3451C19.6951 3.82597 12.7593 4.62078 12.6965 4.62078C10.8802 4.85315 10.8722 6.82893 12.6893 7.05459C15.2268 7.36971 17.2506 7.52727 17.2837 7.52727L23.6461 8.0961H23.7403C24.4394 8.15844 26.5916 8.31429 26.5916 10.0597C26.6227 11.7782 24.7333 12.1401 23.8938 12.2685C23.8748 12.2714 23.8563 12.2727 23.8371 12.2727C23.8145 12.2727 23.7922 12.2747 23.77 12.2786C23.0722 12.4026 22.0407 12.57 16.9381 13.1299C15.4074 13.2961 13.976 13.4624 12.725 13.614C12.022 13.6991 12.0197 14.6494 12.7279 14.6494L19.1531 15.4052C21.2111 15.6234 23.489 16.0364 24.6279 16.3558C25.2641 16.5117 25.7983 16.8623 26.1439 17.3065C26.5209 17.813 26.6466 18.413 26.4895 19.0442C26.1753 20.4078 24.243 20.8753 24.1173 20.9065C24.0231 20.9377 20.7633 21.826 15.1 22.426C8.73764 23.026 4.88093 23.5948 3.48277 23.7896H3.41993C3.37605 23.7951 3.32618 23.8033 3.27358 23.8133C2.96933 23.8711 2.41 24 2.10033 24Z" fill="white"/>
<path fill-rule="evenodd" clip-rule="evenodd" d="M19.6009 0.989649C16.0348 1.12991 13.2935 1.46497 11.6047 1.7377C12.9673 1.57722 14.6108 1.41185 15.2509 1.4546C15.4482 1.46777 15.4924 1.63978 15.3154 1.72809C14.6642 2.05313 12.4958 2.5084 8.90263 3.38186C4.5568 4.42864 3.39989 4.57267 3.22611 4.36675C3.22434 4.36466 3.22302 4.36243 3.22199 4.35989C3.20762 4.32483 3.20834 4.28236 3.2204 4.23618C3.22605 4.21458 3.17757 4.17579 3.16162 4.19141C3.16093 4.19208 3.16114 4.19198 3.16036 4.19254C3.13562 4.21062 1.98457 5.05525 2.17106 5.59485C2.35171 6.11752 4.70331 5.23066 4.89939 5.15568C4.90908 5.15198 4.91222 5.15073 4.92194 5.14711C5.2265 5.0336 12.781 2.26233 22.1144 3.13251C24.1589 3.26743 25.0124 2.9745 25.3676 2.68957C25.642 2.46941 25.6297 2.0293 25.3655 1.79691C24.8892 1.37785 23.5207 0.83706 19.6009 0.989649Z" fill="white"/>
<path fill-rule="evenodd" clip-rule="evenodd" d="M25.6175 18.8571C25.5861 18.1792 22.8997 18.0545 20.1427 18.5143C18.7367 18.7636 16.5216 19.0052 14.7307 19.1922C15.4377 19.1922 15.7519 19.2545 14.7622 19.5039C11.4497 20.3561 7.88564 20.8149 7.78158 20.8283C7.77829 20.8287 7.77748 20.8288 7.77419 20.8292C4.22811 21.2881 3.42765 21.109 3.35699 20.9532C3.33874 20.917 3.29406 20.8331 3.25627 20.8478C3.24542 20.8521 3.2347 20.856 3.22407 20.8595C3.22366 20.8597 3.22367 20.8596 3.22327 20.8598C3.21038 20.8646 2.54551 21.112 2.29659 21.413C2.03738 21.7247 1.75461 22.4026 4.66874 21.9039C7.41269 21.4343 11.2361 20.944 11.6733 20.8883C11.7016 20.8847 11.7253 20.882 11.7537 20.879C12.2414 20.8287 17.1776 20.3252 20.5197 20.2363C24.0465 20.1506 25.6803 19.5039 25.6175 18.8571Z" fill="white"/>
<path fill-rule="evenodd" clip-rule="evenodd" d="M20.2056 9.75581L15.864 10.1733C15.792 10.1802 15.3813 10.4049 15.3121 10.4259C11.1255 11.6337 4.66098 12.4207 3.85979 12.3896C3.58985 12.372 3.46202 12.3272 3.40747 12.2706C3.36537 12.2269 3.29986 12.1808 3.23941 12.1863C3.22955 12.1872 3.21894 12.189 3.20996 12.1932C3.07882 12.254 2.04592 12.7499 2.17101 13.2389C2.31696 13.7312 4.45613 13.181 4.75896 13.1004C4.78349 13.0939 4.80313 13.0887 4.82776 13.0826C5.38852 12.9437 12.9739 11.1136 22.4207 11.361C24.0157 11.3305 24.8152 11.0985 25.2159 10.8695C25.588 10.6568 25.6154 10.1153 25.2299 9.928C24.6779 9.65993 23.3559 9.4343 20.2056 9.75581Z" fill="white"/>
<path fill-rule="evenodd" clip-rule="evenodd" d="M4.08831 15.6487C4.18138 15.5784 4.13482 15.4214 4.02473 15.4598C3.53392 15.6345 3.31118 15.818 3.21244 15.9622C3.10482 16.1194 3.20962 16.3711 3.38352 16.2933C3.51033 16.2366 3.70283 16.0864 3.99382 15.7488C3.99855 15.7433 4.00221 15.7379 4.00597 15.7317C4.02191 15.7055 4.04984 15.6777 4.08831 15.6487Z" fill="white"/>
<path fill-rule="evenodd" clip-rule="evenodd" d="M3.67914 6.41296C3.71714 6.37698 3.6394 6.20333 3.59175 6.22495C3.28147 6.36571 3.06845 6.52315 3.14661 6.6746C3.15028 6.68172 3.15632 6.68826 3.16317 6.6924C3.36527 6.81447 3.65149 6.44912 3.67726 6.41544C3.67865 6.41362 3.67748 6.41454 3.67914 6.41296Z" fill="white"/>
<path fill-rule="evenodd" clip-rule="evenodd" d="M21.6667 17.2753C21.6546 17.2783 21.6634 17.3175 21.6755 17.3143C22.4529 17.1079 23.124 16.878 23.4969 16.6364C23.6674 16.5179 23.5508 16.2644 23.3622 16.3511C23.2854 16.3864 23.1918 16.4557 23.0798 16.58C22.9804 16.6903 22.8899 16.8114 22.7594 16.8821C22.5913 16.9729 22.271 17.1081 21.6667 17.2753Z" fill="white"/>
<path fill-rule="evenodd" clip-rule="evenodd" d="M9.97077 8.64155C8.39269 8.34747 8.30207 8.53723 9.90419 8.63742C9.92629 8.6388 9.94848 8.64018 9.97077 8.64155Z" fill="white"/>
<path fill-rule="evenodd" clip-rule="evenodd" d="M7.04878 15.9662C7.57874 15.9662 6.60561 15.6645 7.12565 15.7665L9.97077 16.3247L7.04878 15.9662Z" fill="white"/>
<path fill-rule="evenodd" clip-rule="evenodd" d="M8.76334 14.8546C8.73035 14.8477 8.69827 14.8404 8.66553 14.8324C8.39001 14.7648 7.07054 14.432 8.10922 14.5091C8.38438 14.5296 8.63188 14.5549 8.84929 14.5815C8.9249 14.5908 9.43436 14.8303 9.50738 14.852C9.50805 14.8522 9.50686 14.8519 9.50754 14.852C9.52924 14.8577 11.8046 15.4466 15.8226 15.9507C13.2808 15.7899 9.25311 14.9572 8.76334 14.8546ZM19.3966 15.7481C19.6408 15.8078 19.8636 15.8633 20.0348 15.9158C20.2996 15.997 20.2451 16.1803 19.9685 16.1947C19.1789 16.2358 17.4921 16.0989 17.1102 16.0665C17.0582 16.0621 17.0078 16.0566 16.956 16.0497C16.4435 15.9812 13.5237 15.5757 13.6312 15.2416C13.6626 15.1325 13.9611 15.1013 14.3616 15.1013C13.0578 14.9611 10.4735 14.6494 8.28988 14.4546C7.31443 14.3497 7.10389 14.4323 7.05971 14.4805C7.0454 14.4962 7.05272 14.5188 7.06719 14.5343C7.18248 14.6576 7.99476 15.218 13.4819 15.8572C17.6132 16.3436 19.4443 16.3592 20.2153 16.2897C20.5721 16.2576 20.6103 16.0299 20.2649 15.9347C20.0641 15.8794 19.7837 15.8172 19.3966 15.7481Z" fill="white"/>
<path fill-rule="evenodd" clip-rule="evenodd" d="M19.8029 18.1721C19.7759 18.116 19.8069 18.0495 19.8676 18.0357C20.3367 17.9288 22.0773 17.5249 22.6798 17.2831C21.8531 17.6967 20.9564 17.9715 20.7847 18.0225C20.7649 18.0284 20.7453 18.0334 20.7252 18.0381L19.9116 18.2243C19.8676 18.2344 19.8225 18.2127 19.8029 18.1721Z" fill="white"/>
<path fill-rule="evenodd" clip-rule="evenodd" d="M21.6106 17.524C21.5865 17.5217 21.5845 17.2912 21.6082 17.2857C21.6136 17.2845 21.6221 17.2851 21.6263 17.2888C21.714 17.3641 21.7072 17.4753 21.701 17.5164C21.6996 17.5257 21.6911 17.5318 21.6817 17.5309L21.6106 17.524Z" fill="white"/>
<path fill-rule="evenodd" clip-rule="evenodd" d="M10.6053 13.3856C10.4238 13.4243 10.1766 13.4323 10.3612 13.4146C10.4576 13.4054 10.5552 13.3962 10.6541 13.387C15.4122 12.9469 18.062 12.7285 18.1972 12.7173C18.2015 12.717 18.2031 12.7169 18.2074 12.7165C18.3429 12.7059 21.2961 12.4753 22.24 12.4753C23.214 12.4753 22.2714 12.4987 22.24 12.4987C22.2104 12.4987 18.6503 12.7617 18.2408 12.792C18.2144 12.7939 18.1919 12.7954 18.1655 12.7969C17.7427 12.8201 13.7984 13.0413 10.8806 13.3513C10.7689 13.3632 10.7153 13.3622 10.6053 13.3856Z" fill="white"/>
<path fill-rule="evenodd" clip-rule="evenodd" d="M7.04093 13.4415C6.73558 13.5195 6.744 13.5472 7.04093 13.4415V13.4415Z" fill="white"/>
<path fill-rule="evenodd" clip-rule="evenodd" d="M18.8476 9.59345C18.8115 9.59816 18.7554 9.55329 18.7918 9.55329C18.7918 9.55329 18.7918 9.55329 18.7918 9.55329C18.8232 9.55329 23.7836 8.84587 24.6093 8.64232C24.6115 8.64178 24.6134 8.6416 24.6156 8.6416H24.6175C24.6319 8.6416 24.6436 8.65329 24.6436 8.66771C24.6436 8.67981 24.6372 8.68988 24.6255 8.69259C23.7717 8.88878 19.3959 9.52193 18.8476 9.59345Z" fill="white"/>
<path fill-rule="evenodd" clip-rule="evenodd" d="M24.6265 8.64352C24.4999 8.59508 24.4863 8.75648 24.6033 8.68806C24.6063 8.68632 24.6091 8.68456 24.6117 8.68279C24.6344 8.66729 24.6522 8.65335 24.6265 8.64352Z" fill="white"/>
<path fill-rule="evenodd" clip-rule="evenodd" d="M19.3532 9.60004C19.2126 9.60004 19.1946 9.37955 19.3332 9.35627C20.5015 9.1601 22.0162 8.87897 22.6799 8.6416C20.5033 9.49174 19.4324 9.59371 19.3611 9.59973C19.3584 9.59997 19.3559 9.60004 19.3532 9.60004Z" fill="white"/>
<path fill-rule="evenodd" clip-rule="evenodd" d="M19.0852 4.04473C19.0959 4.04424 19.0877 4.04438 19.0984 4.04414C20.4472 4.01423 20.4616 3.8274 19.1135 3.87995C15.0269 4.03924 9.82941 4.64005 9.47906 4.68092C9.46392 4.68268 9.45508 4.68379 9.43996 4.68576C9.10912 4.72906 4.85221 5.29263 4.14264 5.71947C3.90808 5.86412 4.78379 5.59256 5.1304 5.4824C5.22098 5.45361 5.31099 5.42773 5.40359 5.4063C5.85093 5.30279 7.35682 4.9735 9.46034 4.71428C12.0021 4.45903 18.4598 4.07328 19.0852 4.04473Z" fill="white"/>
<path fill-rule="evenodd" clip-rule="evenodd" d="M5.02808 7.53951C5.02185 7.50734 4.9992 7.47466 4.96753 7.46622C4.27003 7.2805 3.94558 7.08133 3.79466 6.93623C3.71044 6.85526 3.64385 6.73562 3.53748 6.78393C3.41746 6.83842 3.29601 7.05119 3.41272 7.11246C3.95259 7.39588 4.50779 7.55643 4.92973 7.65026C4.99009 7.66368 5.03982 7.60022 5.02808 7.53951Z" fill="white"/>
<path fill-rule="evenodd" clip-rule="evenodd" d="M13.9847 9.04676C11.1098 8.73508 5.11658 7.31689 5.90206 7.07533C6.11632 7.0034 6.37483 7.03986 6.60273 7.10642C6.72784 7.14295 6.68768 7.26323 6.56972 7.2078C6.81322 7.3091 9.05184 8.14287 13.9532 8.86754C15.5423 9.10108 16.5007 9.25588 17.083 9.36143C17.176 9.37829 17.1727 9.5064 17.0791 9.51987C17.069 9.52134 17.0589 9.521 17.0489 9.51876C16.6266 9.42455 15.7467 9.25468 13.9847 9.04676ZM13.267 8.21003C13.1792 8.119 13.1854 7.97145 13.3044 7.92872C13.5986 7.82307 14.317 7.85411 14.9822 7.9091C13.5291 7.73767 11.259 7.42598 9.50742 7.1143C6.74367 6.63411 5.22926 6.53112 5.09531 7.17261C5.0937 7.18032 5.09302 7.18839 5.09302 7.19627C5.09302 7.25033 5.12494 7.29875 5.17553 7.31782C5.73436 7.52847 7.68692 8.15311 11.6911 8.87534C14.4549 9.15159 15.9106 9.50741 16.2059 9.58475C16.244 9.59474 16.2827 9.59776 16.3219 9.59337C16.6501 9.55664 16.655 9.2701 16.3303 9.20953C15.1689 8.99287 13.6754 8.63357 13.267 8.21003Z" fill="white"/>
<path fill-rule="evenodd" clip-rule="evenodd" d="M21.4346 17.2744C21.4916 17.2697 21.4999 17.1934 21.4446 17.1791C20.7798 17.0065 19.2287 16.6847 15.8384 16.3169C19.581 16.7965 20.9397 17.0994 21.4128 17.2715C21.4199 17.2741 21.4271 17.275 21.4346 17.2744Z" fill="white"/>
<path fill-rule="evenodd" clip-rule="evenodd" d="M13.0348 9.59911C13.1408 9.5885 13.1426 9.43014 13.0368 9.41748C10.6821 9.13541 6.22489 8.50851 6.30821 7.99714C6.30929 7.99051 6.312 7.985 6.31735 7.98093C6.41408 7.90731 6.89766 7.92316 7.45078 7.96977C7.48403 7.97257 7.49802 7.87569 7.46513 7.87009C7.46513 7.87009 7.46513 7.87009 7.46513 7.87009C7.46503 7.87007 5.22651 7.48828 5.09298 7.80775C4.95951 8.12707 7.26645 9.06915 13.0177 9.59917C13.0233 9.59968 13.0292 9.59968 13.0348 9.59911Z" fill="white"/>
<path fill-rule="evenodd" clip-rule="evenodd" d="M20.6769 17.1195C19.318 16.6987 14.8801 16.0987 11.2669 15.6156C7.65364 15.1324 6.08268 14.5013 5.77634 14.4155C5.70337 14.3933 5.6353 14.3971 5.57394 14.4158C5.32908 14.4906 5.07705 14.6485 4.8476 14.5349C4.79339 14.5081 4.7426 14.4807 4.69597 14.4542C4.65328 14.43 4.60278 14.4231 4.55552 14.4364C4.39716 14.4809 4.38422 14.6835 4.5417 14.7311C4.88638 14.8353 5.20621 14.8817 5.26428 14.8896C5.27071 14.8905 5.27657 14.8914 5.28298 14.8925C5.46869 14.9239 8.39327 15.4177 11.259 15.7948C14.1141 16.1665 17.0837 16.6517 17.2415 16.6684C17.2483 16.6691 17.2386 16.6675 17.2318 16.6677C17.1463 16.6703 17.151 16.7752 17.2347 16.793C17.6996 16.8916 18.6128 17.0844 19.2552 17.213C19.932 17.3484 20.4159 17.2613 20.6118 17.2107C20.677 17.1938 20.7408 17.1406 20.6769 17.1195Z" fill="white"/>
</svg>
