<svg width="107" height="28" viewBox="0 0 107 28" fill="none" xmlns="http://www.w3.org/2000/svg">
<path d="M31.0495 13.108L31.4385 11.7895L30.0767 11.8283C29.96 11.8283 29.1429 11.7895 28.3258 11.2078C28.4036 11.2078 28.4425 11.2078 28.5204 11.2078C29.3375 11.2078 30.1545 10.7036 30.4658 10.0055L31.0495 8.72576C30.3102 8.72576 29.6487 8.6482 29.6487 8.6482C29.6487 8.6482 29.104 8.57064 28.5204 7.95014C28.0924 7.52355 27.5476 7.29086 26.964 7.29086C26.6916 7.29086 26.4971 7.32964 26.3025 7.4072C26.3415 7.29086 26.3804 7.2133 26.3804 7.09695C26.5749 5.89474 25.7967 4.96399 25.7967 4.96399L24.7851 3.72299L24.1625 5.19668C24.1625 5.19668 24.0069 5.54571 23.7345 5.70083C23.6567 5.27424 23.4233 4.77008 22.9953 4.30471C22.1393 3.41274 21.1276 3.2964 20.5829 3.2964C20.3495 3.2964 20.1549 3.33518 20.116 3.33518L18.8709 3.56787C18.9487 3.2964 19.1044 2.83103 19.3767 2.40443L20.0382 1.35734L18.2873 1.55125L17.7425 0.387812L16.692 0.930748L15.7193 0L14.7855 0.969529L13.7349 0.426593L13.1902 1.59003L11.4782 1.39612L12.1396 2.44321C12.412 2.86981 12.5676 3.33518 12.6455 3.60665L11.4782 3.37396H11.4393C11.3615 3.37396 11.2058 3.33518 10.9335 3.33518C10.3887 3.33518 9.37709 3.45152 8.52109 4.34349C8.05418 4.80886 7.85964 5.31302 7.78182 5.73961C7.50945 5.58449 7.35382 5.23546 7.35382 5.23546L6.73127 3.76177L5.68073 5.04155C5.564 5.19668 4.94145 6.04986 5.09709 7.13573C5.09709 7.25208 5.136 7.32964 5.17491 7.44598C4.98036 7.36842 4.74691 7.32964 4.51345 7.32964C3.92982 7.32964 3.38509 7.56233 2.95709 7.98892C2.33455 8.60942 1.82873 8.68698 1.82873 8.68698C1.82873 8.68698 1.284 8.80332 0.428 8.76454L1.01164 10.0443C1.32291 10.7424 2.14 11.2465 2.95709 11.2465C3.03491 11.2465 3.07382 11.2465 3.15164 11.2465C2.33455 11.8283 1.51745 11.867 1.40073 11.867L0 11.7895L0.428 13.108C0.622545 13.7673 1.32291 14.892 2.68473 15.0083C2.52909 15.6288 2.21782 16.2881 1.51745 16.5983L0.505818 17.0249L1.05055 17.9945C1.36182 18.4986 2.10109 19.1191 3.15164 19.1191C3.38509 19.1191 3.61855 19.0803 3.81309 19.0416C3.852 19.2742 3.92982 19.5069 4.00764 19.7396C4.31891 20.6704 4.04655 21.3296 4.04655 21.3296L3.54073 22.3767L4.66909 22.687C4.66909 22.687 5.01927 22.8033 5.44727 22.8033C5.64182 22.8033 5.83636 22.7645 5.992 22.7258C6.10873 22.687 6.26436 22.6482 6.38109 22.6094C6.53673 22.8809 6.69236 23.1136 6.92582 23.3075C7.66509 24.0443 8.67673 24.4321 9.96073 24.4321H10.8945L8.988 25.2078L10.4276 25.9058C10.9724 26.1773 11.5949 26.4488 12.2175 26.6814L12.0229 27.1856L12.5287 27.4183C12.5676 27.4571 13.5404 27.8837 15.1356 27.9612C15.1356 27.9612 15.5247 27.9612 15.7193 27.9612C15.9138 27.9612 16.3029 27.9612 16.3029 27.9612C17.8982 27.8837 18.8709 27.4571 18.9098 27.4183L19.4156 27.1856L19.2211 26.6814C19.8825 26.4488 20.544 26.1385 21.0498 25.867L22.4895 25.169L20.5829 24.3934H21.5167C22.8007 24.3934 23.8513 24.0055 24.5516 23.2687C24.7462 23.0748 24.9407 22.8033 25.0964 22.5706C25.2131 22.6094 25.3298 22.6482 25.4855 22.687C25.6411 22.7258 25.8356 22.7645 26.0302 22.7645C26.4582 22.7645 26.8084 22.687 26.8084 22.687L27.9367 22.3767L27.4309 21.3296C27.4309 21.2909 27.1585 20.6704 27.4698 19.7396C27.5476 19.5069 27.6255 19.2742 27.6644 19.0416C27.8589 19.0803 28.0924 19.1191 28.3258 19.1191C29.6876 19.1191 30.3102 18.1884 30.4269 17.9557L30.9716 16.9862L29.96 16.5596C29.2596 16.2493 28.9095 15.59 28.7927 14.9695C30.1156 14.892 30.8549 13.7673 31.0495 13.108Z" fill="white"/>
<path d="M15.7192 3.99445C14.6297 3.99445 13.8126 4.34348 13.657 4.77007L15.7192 5.58447L17.7813 4.77007C17.6257 4.34348 16.8086 3.99445 15.7192 3.99445Z" fill="white"/>
<path d="M15.7582 25.5956H15.7193C15.0578 25.5956 14.1629 25.4792 13.7349 25.3241L13.1902 26.759C13.5404 26.8753 14.7076 27.108 15.7193 27.108C16.7309 27.108 17.9371 26.8753 18.2484 26.759L17.7425 25.3629C17.3145 25.4792 16.4196 25.5956 15.7582 25.5956Z" fill="white"/>
<path d="M19.727 24.1995C19.3379 24.4321 18.4819 24.7424 17.9761 24.8975L18.4041 26.061C19.1823 25.8283 19.8437 25.5956 20.3884 25.3241L19.4546 25.0526L19.727 24.1995Z" fill="white"/>
<path d="M11.7505 24.1995L12.0228 25.0526L11.1279 25.3629C11.6727 25.6344 12.2952 25.8671 13.1123 26.0997L13.5403 24.9363C12.9956 24.7424 12.1396 24.4322 11.7505 24.1995Z" fill="white"/>
<path d="M15.7192 2.6371C16.5363 2.6371 17.3534 2.83101 17.9759 3.18004C18.0148 2.98613 18.0926 2.75345 18.2094 2.52076L17.9759 2.55954L17.7425 2.59832L17.6257 2.36563L17.3145 1.70635L16.7308 2.0166L16.4974 2.13295L16.3417 1.93904L15.7192 1.31854L15.1355 1.93904L14.941 2.09417L14.7075 1.97782L14.1239 1.66757L13.8126 2.32685L13.6959 2.55954L13.4625 2.52076L13.229 2.48198C13.3457 2.71466 13.4235 2.94735 13.4625 3.14126C14.1239 2.83101 14.9021 2.6371 15.7192 2.6371Z" fill="white"/>
<path d="M28.2091 10.2383C28.3259 10.277 28.4037 10.277 28.5204 10.277C28.9873 10.277 29.4153 9.96679 29.5709 9.65654C29.5709 9.65654 28.7149 9.61775 27.82 8.68701C27.5477 8.37676 27.2364 8.29919 26.964 8.29919C26.536 8.29919 26.2637 8.53188 26.2637 8.53188C27.392 9.07482 27.5866 10.0056 28.2091 10.2383Z" fill="white"/>
<path d="M2.91822 10.277C3.03495 10.277 3.15168 10.277 3.22949 10.2382C3.85204 10.0443 4.08549 9.07478 5.17495 8.49306C5.17495 8.49306 4.86368 8.26038 4.47458 8.26038C4.20222 8.26038 3.89095 8.33794 3.61858 8.64819C2.72368 9.57894 1.86768 9.61772 1.86768 9.61772C2.02331 9.96675 2.45131 10.277 2.91822 10.277Z" fill="white"/>
<path d="M28.5204 14.0388H28.5593C29.7266 14.0388 30.1157 12.7978 30.1157 12.7978H30.0768C29.8822 12.7978 28.1313 12.759 26.9252 11.2077C26.1081 10.1994 25.4855 9.30746 24.1626 8.95843L24.0459 8.91965L24.007 8.8033C23.9681 8.6094 24.1237 8.41549 24.3961 8.22159C26.1859 7.05815 24.9797 5.58447 24.9797 5.58447C24.9797 5.58447 24.4739 6.78668 23.3455 6.78668C23.3066 6.78668 23.3066 6.78668 23.2677 6.78668C23.151 6.78668 22.9953 6.78668 22.8786 6.7479L22.6841 6.70912C22.6841 6.70912 22.9953 5.81715 22.2172 5.00275C21.6335 4.38225 20.8942 4.30469 20.5052 4.30469C20.3106 4.30469 20.155 4.34347 20.155 4.34347C20.5441 4.84762 20.8164 5.70081 20.3884 6.24375C19.9993 6.70912 19.0266 6.70912 19.0266 7.40718C19.0266 7.67865 19.299 8.02768 19.7659 8.33793C21.2055 9.2299 22.6452 10.4321 23.2288 12.0609C23.9681 14.0775 23.151 15.3961 21.9448 16.1717C21.9448 16.1717 22.3339 16.5208 22.8786 16.5595C22.9953 16.5595 23.1121 16.5595 23.1899 16.5595C24.3572 16.5595 24.9408 16.0166 24.9408 16.0166C24.9408 16.0166 24.8241 16.7534 24.2404 17.4515C23.6957 18.072 22.9564 18.4598 21.867 18.4598C21.867 18.4598 21.8281 18.964 22.3339 19.4293C22.6452 19.7008 23.3844 19.8172 23.3844 19.8172C23.3844 19.8172 22.0226 20.0886 21.867 22.0665C21.7892 23.1523 21.5168 23.5401 21.5168 23.5401H21.5557C24.7073 23.5401 24.6295 20.8642 24.6295 20.8642C24.6295 20.8642 24.863 21.6786 25.719 21.8726C25.8357 21.9113 25.9524 21.9113 26.0302 21.9113C26.3026 21.9113 26.575 21.8338 26.575 21.8338C26.575 21.8338 26.1081 20.8642 26.575 19.5069C26.9641 18.3822 26.8862 17.5678 26.8862 17.5678C26.8862 17.5678 27.3142 18.1883 28.3648 18.2271C29.2208 18.2271 29.6099 17.5678 29.6099 17.5678C27.5088 16.7147 27.7033 13.8836 27.7033 13.8836C27.7033 13.8836 27.9757 14.0388 28.5204 14.0388ZM27.8979 16.9473C27.0419 16.5208 26.4972 15.4349 26.3804 15.0083C26.2248 17.2188 25.1742 18.7313 23.8902 20.205C23.2288 20.9806 22.9953 21.7174 22.9953 21.7174C22.9953 21.7174 23.1121 20.8642 23.6957 20.205C24.863 18.8088 25.9913 17.0249 26.0692 15.0083C26.1081 13.5734 25.7579 12.4487 25.1742 11.4792C25.4855 12.4487 25.4466 13.6897 24.3572 14.8144C24.3572 14.8144 26.4972 12.2548 23.5012 9.57893C22.295 8.57062 20.9721 7.95012 20.3106 7.52352C22.7619 8.33793 23.9681 7.44596 23.9681 7.44596C23.1899 8.10524 22.1782 8.10524 21.5557 8.02768C21.7113 8.10524 21.9059 8.1828 22.1004 8.29915C24.1626 9.4238 26.0302 11.2853 26.3415 13.8061V13.7673C26.8084 16.3268 27.8979 16.9473 27.8979 16.9473Z" fill="white"/>
<path d="M8.09309 19.7396C8.09309 19.7396 8.83236 19.6621 9.14363 19.3518C9.64945 18.9252 9.61054 18.3823 9.61054 18.3823C8.52109 18.3823 7.78182 17.9945 7.23709 17.374C6.65345 16.6759 6.53673 15.9391 6.53673 15.9391C6.53673 15.9391 7.12036 16.482 8.28763 16.482C8.40436 16.482 8.48218 16.482 8.59891 16.482C9.14364 16.4432 9.53273 16.0942 9.53273 16.0942C8.32654 15.3186 7.50945 14 8.24873 11.9834C8.83236 10.3546 10.272 9.15238 11.7116 8.26041C12.1785 7.95016 12.4509 7.63992 12.4509 7.32967C12.4509 6.67039 11.4782 6.63161 11.0891 6.16623C10.6222 5.62329 10.9335 4.77011 11.3225 4.26595C11.3225 4.26595 11.2058 4.22717 10.9724 4.22717C10.5444 4.22717 9.844 4.34352 9.26036 4.92523C8.48218 5.73964 8.79345 6.63161 8.79345 6.63161L8.56 6.74795C8.44327 6.78673 8.32654 6.78673 8.17091 6.78673C8.132 6.78673 8.132 6.78673 8.09309 6.78673C6.96473 6.78673 6.45891 5.58451 6.45891 5.58451C6.45891 5.58451 5.25273 7.0582 7.04254 8.22163C7.35382 8.41554 7.47054 8.60945 7.43163 8.80335L7.39273 8.95848L7.276 8.99726C5.992 9.34629 5.33054 10.2383 4.51345 11.2466C3.30727 12.7978 1.59527 12.8366 1.36182 12.8366C1.36182 12.8366 1.75091 14.0776 2.91818 14.0776H2.95709C3.50182 14.0776 3.77418 13.8449 3.77418 13.8449C3.77418 13.8449 3.96873 16.6371 1.86763 17.5291C1.86763 17.5291 2.25673 18.1884 3.11273 18.1884C4.16327 18.1884 4.59127 17.5291 4.59127 17.5291C4.59127 17.5291 4.51345 18.3435 4.90254 19.4682C5.36945 20.8255 4.90254 21.795 4.90254 21.795C4.90254 21.795 5.136 21.8726 5.44727 21.8726C5.564 21.8726 5.68073 21.8726 5.75854 21.8338C6.65345 21.6399 6.848 20.8255 6.848 20.8255C6.848 20.8255 6.77018 23.5014 9.92182 23.5014H9.96073C9.96073 23.5014 9.68836 23.1136 9.61054 22.0277C9.45491 20.0499 8.09309 19.7396 8.09309 19.7396ZM7.58727 20.2438C6.34218 18.7701 5.25273 17.2576 5.09709 15.0471C4.98036 15.4349 4.43563 16.5596 3.57963 16.9862C3.57963 16.9862 4.66909 16.3269 5.136 13.8449V13.8837C5.44727 11.3241 7.31491 9.50141 9.37709 8.37676C9.57164 8.26041 9.72727 8.18285 9.92182 8.10529C9.29927 8.22163 8.28763 8.22163 7.50945 7.52357C7.50945 7.52357 8.71564 8.41554 11.1669 7.60113C10.5055 8.02773 9.18254 8.64823 7.97636 9.65654C4.94145 12.2937 7.12036 14.892 7.12036 14.892C6.03091 13.7673 5.992 12.5651 6.30327 11.5568C5.71964 12.4876 5.36945 13.651 5.40836 15.0859C5.48618 17.0637 6.61454 18.8089 7.78182 20.2438C8.36545 20.9419 8.48218 21.7563 8.48218 21.7563C8.48218 21.7563 8.24873 21.0194 7.58727 20.2438Z" fill="white"/>
<path d="M13.4236 9.92798C13.4625 9.96676 13.5404 10.0443 13.5793 10.1219L13.6182 10.1607C13.6571 10.2382 13.696 10.277 13.7349 10.3546C13.7349 10.3546 13.7349 10.3934 13.7738 10.3934C13.8127 10.4709 13.8905 10.5485 13.9294 10.626C14.3964 11.4017 15.0967 11.867 15.7582 11.867C16.4196 11.867 17.12 11.4017 17.5869 10.626C17.6258 10.5485 17.7036 10.4709 17.7425 10.3934C17.7425 10.3934 17.7425 10.3546 17.7814 10.3546C17.8204 10.277 17.8593 10.2382 17.9371 10.1607L17.976 10.1219C18.0149 10.0443 18.0927 10.0055 18.1316 9.92798C18.1316 9.92798 18.1316 9.92798 18.1705 9.8892C18.404 9.65651 18.6764 9.46261 19.0265 9.38505L18.7931 9.30748L18.1705 8.91967L17.5091 8.53186L15.7582 9.50139L14.0073 8.53186L13.3458 8.91967L12.7233 9.30748L12.5676 9.38505C12.8789 9.50139 13.1513 9.65651 13.4236 9.92798C13.3847 9.92798 13.3847 9.92798 13.4236 9.92798ZM15.0189 9.85042H15.7582H16.4974V10.3546C16.3418 10.1607 15.9916 10.1995 15.9916 10.1995V10.9363C15.9916 10.9363 15.9916 11.2853 16.1473 11.4404H15.7971H15.4469C15.5636 11.2853 15.6025 10.9363 15.6025 10.9363V10.1995C15.6025 10.1995 15.2524 10.1607 15.0967 10.3546V9.85042H15.0189Z" fill="white"/>
<path d="M15.6026 8.8809V5.89475L13.696 5.23547L14.2019 8.10528L15.6026 8.8809ZM15.1746 6.6316V7.09697L15.0968 7.05819C15.0968 7.05819 14.9411 7.01941 14.7077 6.8255C14.3186 6.51525 14.3186 6.24378 14.3186 6.24378L15.1746 6.6316Z" fill="white"/>
<path d="M17.2757 8.14404L17.7815 5.27423L15.875 5.93351V8.91966L17.2757 8.14404ZM16.303 6.63157L17.159 6.28254C17.159 6.28254 17.159 6.55401 16.7699 6.86426C16.5365 7.05816 16.4197 7.09695 16.3808 7.09695L16.303 7.13573V6.63157Z" fill="white"/>
<path d="M12.9179 15.7451C13.1124 15.8227 13.307 15.8227 13.4237 15.8227V15.7839C13.4237 15.7451 13.4626 15.7064 13.4626 15.6676C13.5015 15.5125 13.5015 15.3186 13.5015 15.2022C13.4237 15.1634 13.307 15.0859 13.2681 14.9307C13.1902 14.7756 13.1124 14.6981 12.9568 14.6981C12.7622 14.6981 12.5677 14.8144 12.4899 14.8532C12.4121 15.3186 12.6844 15.6676 12.9179 15.7451Z" fill="white"/>
<path d="M17.0811 14.1939C16.731 14.5817 16.0306 15.241 15.9917 15.2798L15.9528 15.3186L13.7739 15.2798C13.7739 15.5125 13.735 15.6676 13.696 15.8227C13.696 15.8615 13.696 15.8615 13.696 15.9003L16.303 16.3657C16.5753 16.1717 17.3146 15.6288 17.587 15.4349C17.3924 15.1247 17.3535 14.7756 17.3924 14.5042C17.2757 14.3878 17.159 14.2715 17.0811 14.1939Z" fill="white"/>
<path d="M17.3924 11.5568C16.8866 12.0609 16.4197 12.2548 15.9917 12.2936C15.9139 12.2936 15.8361 12.2936 15.7583 12.2936C15.6804 12.2936 15.6026 12.2936 15.5248 12.2936C15.447 12.2936 15.3692 12.2936 15.2914 12.2548C15.2524 12.3712 15.2135 12.6039 15.3303 12.8366C15.4081 13.0305 15.6026 13.1856 15.875 13.3019L15.9528 13.3407V13.4571C15.9528 13.4958 15.9917 14.1163 16.6532 14.3103C16.7699 14.1939 16.8866 14.0776 16.9255 14C16.7699 13.651 16.8477 13.3407 17.0812 13.1468C17.0812 13.1856 16.9644 14 17.6648 14.3103L17.7815 14.349L17.7426 14.4654C17.7426 14.5042 17.5092 15.3186 18.3263 15.59L18.4819 15.6288L18.4041 15.7839C18.4041 15.8227 18.0928 16.5596 18.8321 16.9474H20.4663V15.6676C19.8826 15.59 19.6492 15.1247 19.5714 14.8144C19.299 14.7756 19.1044 14.6593 18.9488 14.4654C18.5986 14.0388 18.9099 13.6122 18.9099 13.5734C18.9099 13.5734 18.9099 14 19.1823 14.2715C19.299 14.3878 19.4546 14.5042 19.727 14.5042H19.8437V14.6205C19.8437 14.6593 19.9215 15.241 20.4663 15.3186V12.7202C20.4663 12.3324 20.583 11.9058 20.7386 11.518H17.3924V11.5568Z" fill="white"/>
<path d="M13.0345 12.759L12.9956 14.4266L13.1902 14.4654L13.6571 12.8754L13.4236 12.3712L13.0345 12.759Z" fill="white"/>
<path d="M18.1705 20.3989H18.2094C18.4818 20.4764 18.5596 21.5235 19.0654 21.6011C19.1043 21.6011 19.1433 21.6011 19.1822 21.6011C19.3378 21.6011 19.4156 21.5235 19.4934 21.446C19.4934 21.446 19.2211 21.0582 19.0654 20.7867C18.7931 20.4377 18.5985 20.0111 18.1316 20.0111H18.0927C17.9371 20.0111 17.8593 20.0886 17.8593 20.0886C17.6647 19.9723 17.5091 19.9335 17.3145 19.9335C17.0033 19.9335 16.8087 20.0498 16.692 20.0498L15.6414 19.9335C15.4858 19.9335 15.3302 19.7396 15.2913 19.7008V19.662C15.2913 19.6233 15.2913 19.6233 15.2913 19.5845C15.2523 18.7313 14.5909 18.3435 14.3574 18.3435C14.3574 18.3435 14.3963 18.1884 14.3185 18.1108L14.0851 18.3823L13.3069 17.9944L13.8516 18.6149L13.3847 19.1191C13.3458 19.1967 13.3458 19.2742 13.3458 19.2742L13.5403 19.4681L13.7738 19.313C13.7738 19.313 13.8127 19.313 13.8516 19.313C13.9294 19.313 14.0073 19.313 14.124 19.313C14.2407 19.313 14.3185 19.2742 14.3185 19.1967C14.2796 19.5069 14.0073 20.0498 14.2018 20.5152L14.3574 20.8255L13.4236 20.7091L12.9956 21.446C12.8789 21.6787 12.84 21.9501 12.9567 22.1052L13.1123 22.2992C13.1123 22.2992 13.3458 22.0665 13.3847 21.9113L13.3069 21.8338C13.2291 21.7562 13.2291 21.7174 13.268 21.6399L13.5403 21.1745L14.6298 21.446L14.6687 21.3296C14.7465 21.2133 14.8633 21.1745 14.98 21.1745C15.0189 21.1745 15.0967 21.1745 15.1356 21.1745C15.3302 21.2133 15.6803 21.2521 15.9916 21.2521C16.3418 21.2521 16.7309 21.1745 16.9254 20.9806C17.3145 21.5623 18.1316 21.6787 18.0538 21.9501L17.8593 22.9584C18.0149 22.9584 18.1316 22.9584 18.2483 22.9197L18.4429 21.8726C18.4818 21.7562 18.4818 21.6011 18.4818 21.6011C18.404 21.5235 18.2094 21.3684 18.0927 21.1357C17.9371 20.8643 18.0149 20.7091 17.8982 20.3601C18.0149 20.4764 18.0538 20.3989 18.1705 20.3989ZM14.0462 18.9252C14.0073 18.9252 13.9683 18.8864 13.9683 18.8088C13.9683 18.7701 14.0073 18.7313 14.0851 18.7313C14.124 18.7313 14.1629 18.7701 14.1629 18.8476C14.124 18.8864 14.0851 18.9252 14.0462 18.9252Z" fill="white"/>
<path d="M12.5288 21.3297C12.5288 21.3297 12.879 21.1745 12.9179 21.0582L12.879 20.9418C12.8401 20.8643 12.8401 20.7867 12.9179 20.7479L13.307 20.4765L13.9685 20.5928C13.9685 20.5928 13.8518 20.4377 13.8518 20.2438L13.2292 20.1274L12.6456 20.4765C12.3732 20.6704 12.3732 20.9806 12.451 21.1745L12.5288 21.3297Z" fill="white"/>
<path d="M17.1978 23.036C17.3145 23.036 17.4312 23.036 17.5868 23.036C17.5868 23.036 17.937 22.0665 17.937 22.0277C17.7425 21.9501 17.3534 21.7175 17.1978 21.6399C17.3145 21.795 17.5479 21.9501 17.509 22.1053L17.1978 23.036Z" fill="white"/>
<path d="M20.3885 17.2189H11.0503V20.7092C11.0503 22.1441 12.1008 23.036 13.6183 23.036C14.9023 23.036 15.2525 23.0748 15.7194 23.5402C16.0307 23.23 16.303 23.0748 16.8867 23.036V22.9973L17.1979 22.1053C17.1979 22.0665 16.6921 21.5236 16.6921 21.5236C16.4976 21.6011 16.3419 21.6011 16.0696 21.6011C15.7972 21.6011 15.4859 21.5624 15.1357 21.5236C15.0968 21.5236 15.0579 21.5236 15.019 21.5236C14.9801 21.5236 14.9801 21.5236 14.9801 21.5624L14.9412 21.6399L14.8245 21.8338L14.6299 21.795L13.735 21.6011L13.6183 21.7563V21.795L13.735 21.9114L13.6961 22.0665C13.6183 22.2604 13.4237 22.4931 13.3459 22.5707L13.1125 22.8034L12.9179 22.5319L12.7623 22.338C12.6067 22.1441 12.5677 21.8726 12.6456 21.6011L12.4121 21.7175L12.2954 21.4848L12.2176 21.3297C12.0619 21.0194 12.1397 20.5928 12.4899 20.3214L13.2292 19.9336L13.9296 20.0499C13.9296 19.9723 13.9685 19.7396 14.0074 19.7009H13.9685L13.5794 19.856L13.1903 19.5845C13.1903 19.5845 13.0347 19.4294 13.1903 19.3131L13.5405 18.7701L12.6067 17.6067L14.0463 18.1884L14.1241 18.0721L14.3187 17.8394L14.5521 18.0333C14.6299 18.1108 14.6688 18.1496 14.6688 18.2272C15.0579 18.3823 15.7583 18.8477 15.8361 19.5845H15.5637C15.6027 19.6621 15.6416 19.6621 15.6805 19.6621L16.6921 19.7784C16.731 19.7784 16.731 19.7784 16.7699 19.7396C16.8867 19.7009 17.0812 19.6233 17.3147 19.6233C17.5092 19.6233 17.6648 19.6621 17.8594 19.7396C17.9372 19.7009 18.015 19.7009 18.0928 19.7009H18.1317C18.6765 19.7009 18.9488 20.1275 19.1823 20.4377C19.2212 20.4765 19.2601 20.5541 19.299 20.5928C19.4936 20.8643 19.727 21.2521 19.7659 21.2909L19.8827 21.4848L19.727 21.6399C19.6103 21.7563 19.4547 21.9114 19.1823 21.9114C19.1434 21.9114 19.0656 21.9114 18.9877 21.9114C18.9488 21.9114 18.871 21.8726 18.8321 21.8726C18.8321 21.9114 18.8321 21.989 18.7932 22.0277L18.5987 22.9585C19.6881 22.687 20.3496 21.8726 20.3496 20.7092L20.3885 17.2189Z" fill="#FFE600"/>
<path d="M11.0501 16.9474H18.3261C17.9759 16.5596 17.9759 16.0942 18.0537 15.7839C17.937 15.7452 17.8592 15.6676 17.7814 15.59C17.509 15.7839 16.6141 16.4432 16.4196 16.5984L16.3807 16.6371L13.5403 16.133H13.5014C13.4236 16.133 13.3457 16.133 13.229 16.133C13.1901 16.2493 13.0734 16.3657 12.9567 16.3657H12.9177C12.8399 16.3657 12.7621 16.3269 12.7232 16.2493C12.6843 16.1718 12.6454 16.133 12.6843 16.0554V15.9779C12.373 15.7839 12.1007 15.3186 12.2563 14.8144V14.7756L12.2952 14.7369C12.2952 14.7369 12.3341 14.6981 12.4119 14.6593L12.2174 14.6205C12.1396 14.6205 12.1007 14.543 12.1007 14.4654C12.1007 14.3878 12.1785 14.349 12.2563 14.349L12.7621 14.4266L12.801 12.6815L13.5403 11.9058L14.0072 12.8754L13.5403 14.543L13.9683 14.6205C14.0461 14.6205 14.085 14.6981 14.085 14.7756C14.085 14.8532 14.0072 14.892 13.9294 14.892C13.9294 14.892 13.9294 14.892 13.8905 14.892L13.5403 14.8532C13.5403 14.8532 13.5403 14.8532 13.5403 14.892C13.5792 14.9695 13.657 15.0083 13.6959 15.0471L15.8748 15.0859C15.9527 15.0083 16.1861 14.7756 16.4196 14.543C15.8748 14.349 15.6803 13.8837 15.6414 13.5734C15.3301 13.4571 15.1356 13.2632 15.0188 12.9917C14.8632 12.6815 14.941 12.3712 14.9799 12.2161C14.7076 12.0997 14.3963 11.9058 14.085 11.5956H10.8167C10.9723 11.9834 11.089 12.3712 11.089 12.7978V16.9474H11.0501Z" fill="#FFE600"/>
<path d="M14.0462 18.7313C14.0073 18.7313 13.9294 18.7701 13.9294 18.8089C13.9294 18.8477 13.9684 18.9252 14.0073 18.9252C14.0462 18.9252 14.124 18.8864 14.124 18.8477C14.1629 18.7701 14.124 18.7313 14.0462 18.7313Z" fill="black"/>
<path d="M20.3884 25.0914L19.8437 24.8587L19.9993 24.3158L20.155 23.6953C20.155 23.6953 19.2212 24.1995 17.8593 24.5873C17.4703 24.7036 17.1979 24.7424 17.1979 24.7424V25.2078C17.1979 25.2078 16.4975 25.3241 15.7583 25.3241C15.019 25.3241 14.3186 25.2078 14.3186 25.2078V24.7812C14.3186 24.7812 14.0463 24.7424 13.6572 24.6261C12.2953 24.2382 11.3615 23.7341 11.3615 23.7341L11.5172 24.3546L11.6728 24.8975L11.1281 25.0914L10.5444 25.3241C11.2448 25.6732 12.1786 26.1385 13.0346 26.3712L12.8401 26.9142C12.8401 26.9142 13.9295 27.4183 15.7972 27.4183C17.6259 27.4183 18.7542 26.9142 18.7542 26.9142L18.5597 26.3712C19.4157 26.1385 20.3884 25.6344 21.0499 25.3241L20.3884 25.0914ZM11.1281 25.3241L12.023 25.0139L11.7506 24.1607C12.1397 24.3934 12.9957 24.7036 13.5015 24.8587L13.0735 26.0222C12.2953 25.8671 11.6728 25.5956 11.1281 25.3241ZM15.7193 27.1081C14.7077 27.1081 13.5015 26.8754 13.1903 26.759L13.6961 25.3241C14.1241 25.4405 15.019 25.5956 15.6804 25.5956H15.7193C16.3808 25.5956 17.2757 25.4792 17.7037 25.3241L18.2873 26.759C17.9372 26.8754 16.7699 27.1081 15.7193 27.1081ZM18.4041 26.061L17.9761 24.8975C18.4819 24.7424 19.3379 24.3934 19.7659 24.1995L19.4546 25.0527L20.3495 25.3629C19.8048 25.5956 19.1822 25.8671 18.4041 26.061Z" fill="black"/>
<path d="M15.7193 2.98617C16.8088 2.98617 17.7037 3.33521 18.1706 3.72302C18.1706 3.72302 18.3262 2.86983 18.7931 2.09421L17.8982 2.21055L17.4313 1.24102L16.5364 1.7064L15.6804 0.85321L14.8244 1.7064L14.0073 1.24102L13.5404 2.21055L12.6455 2.09421C13.1513 2.86983 13.2681 3.72302 13.2681 3.72302C13.7739 3.33521 14.6299 2.98617 15.7193 2.98617ZM13.5015 2.55958L13.735 2.59836L13.8517 2.36568L14.163 1.7064L14.7466 2.01665L14.9801 2.13299L15.1357 1.93908L15.7582 1.31858L16.3419 1.93908L16.5364 2.09421L16.7699 1.97786L17.3535 1.66761L17.6648 2.32689L17.7815 2.55958L18.015 2.5208L18.2484 2.48202C18.1317 2.71471 18.0539 2.94739 18.015 3.1413C17.3924 2.79227 16.6142 2.59836 15.7582 2.59836C14.9411 2.59836 14.1241 2.79227 13.5404 3.1413C13.5015 2.94739 13.4237 2.71471 13.307 2.48202L13.5015 2.55958Z" fill="black"/>
<path d="M28.5593 14.4266C29.9601 14.4266 30.4659 12.9917 30.4659 12.9141L30.6215 12.41H30.0768C29.8822 12.41 28.3259 12.3712 27.2364 10.9751L27.1586 10.8587C26.4193 9.92799 25.7579 9.0748 24.5128 8.68699C24.5517 8.64821 24.5906 8.60943 24.6684 8.57065C25.3299 8.14405 25.6801 7.6399 25.7968 7.0194C25.9524 6.12743 25.3688 5.39059 25.3299 5.35181L24.9408 4.84766L24.7073 5.42937C24.7073 5.46815 24.2793 6.3989 23.4233 6.3989H23.3455C23.2677 6.3989 23.2288 6.3989 23.1899 6.3989C23.2288 5.97231 23.151 5.35181 22.5673 4.77009C21.867 4.03325 21.011 3.95569 20.583 3.95569C20.3495 3.95569 20.1939 3.99447 20.155 3.99447L19.5713 4.11081L19.9215 4.57619C20.1939 4.964 20.4662 5.62328 20.155 6.01109C20.0382 6.12743 19.8437 6.205 19.6492 6.32134C19.2601 6.51524 18.7153 6.74793 18.7153 7.40721C18.7153 7.83381 19.0266 8.2604 19.6492 8.64821C21.4001 9.73408 22.4895 10.8975 22.9564 12.1773C23.6957 14.1164 22.723 15.241 21.8281 15.8227L21.4001 16.0942L21.7502 16.4432C21.7892 16.482 22.2561 16.8698 22.8786 16.9474C22.9953 16.9474 23.1121 16.9474 23.2288 16.9474C23.6568 16.9474 24.007 16.8698 24.2793 16.7923C24.2015 16.9474 24.0848 17.0637 23.9681 17.2188C23.4233 17.8393 22.8008 18.1108 21.867 18.1108H21.5168L21.4779 18.4598C21.4779 18.5374 21.439 19.1579 22.0615 19.7008C22.1393 19.7784 22.2561 19.856 22.3728 19.8947C21.9448 20.2826 21.5557 20.9031 21.4779 22.0277C21.4001 22.9585 21.2055 23.3075 21.1666 23.3075L20.7775 23.8892H21.4779C22.6062 23.8892 23.5012 23.579 24.0848 22.9585C24.435 22.6094 24.6295 22.1828 24.7852 21.795C24.9797 21.9501 25.2521 22.1053 25.5633 22.1828C25.6801 22.2216 25.8357 22.2216 25.9913 22.2216C26.3026 22.2216 26.575 22.1441 26.6139 22.1441L27.0419 22.0277L26.8473 21.6011C26.8473 21.5623 26.4582 20.7479 26.8473 19.5845C27.003 19.0803 27.1197 18.615 27.1586 18.2659C27.431 18.4211 27.8201 18.5374 28.287 18.5374C29.3764 18.5374 29.8433 17.723 29.8822 17.6842L30.1157 17.2964L29.7266 17.1413C28.4426 16.5983 28.1313 15.1634 28.0924 14.3878C28.2092 14.4266 28.3259 14.4266 28.4815 14.4266H28.5593ZM29.6099 17.4903C29.6099 17.4903 29.2208 18.1496 28.3648 18.1496C27.3142 18.1496 26.8862 17.4903 26.8862 17.4903C26.8862 17.4903 26.9641 18.3047 26.575 19.4294C26.1081 20.7867 26.575 21.7562 26.575 21.7562C26.575 21.7562 26.3415 21.8338 26.0302 21.8338C25.9135 21.8338 25.7968 21.8338 25.719 21.795C24.8241 21.6011 24.6295 20.7867 24.6295 20.7867C24.6295 20.7867 24.7073 23.4626 21.5557 23.4626H21.5168C21.5168 23.4626 21.7892 23.0748 21.867 21.9889C22.0226 20.0111 23.3844 19.7396 23.3844 19.7396C23.3844 19.7396 22.6452 19.6621 22.3339 19.3518C21.8281 18.9252 21.867 18.3823 21.867 18.3823C22.9564 18.3823 23.6957 17.9945 24.2404 17.374C24.8241 16.6759 24.9408 15.9391 24.9408 15.9391C24.9408 15.9391 24.3572 16.482 23.1899 16.482C23.0732 16.482 22.9953 16.482 22.8786 16.482C22.3339 16.4432 21.9448 16.0942 21.9448 16.0942C23.151 15.3186 23.9681 14 23.2288 11.9834C22.6452 10.3546 21.2055 9.15236 19.7659 8.2604C19.3379 7.98893 19.0655 7.6399 19.0655 7.36843C19.0655 6.70915 20.0382 6.67037 20.4273 6.205C20.8942 5.66206 20.583 4.80887 20.1939 4.30472C20.1939 4.30472 20.3106 4.26594 20.5441 4.26594C20.9721 4.26594 21.6724 4.38228 22.2561 4.964C23.0342 5.7784 22.723 6.67037 22.723 6.67037L22.9175 6.70915C23.0342 6.74793 23.151 6.74793 23.3066 6.74793C23.3455 6.74793 23.3455 6.74793 23.3844 6.74793C24.5128 6.74793 25.0186 5.54572 25.0186 5.54572C25.0186 5.54572 26.2248 7.0194 24.435 8.18284C24.1237 8.37674 24.007 8.57065 24.0459 8.76455L24.0848 8.8809L24.2015 8.91968C25.4855 9.26871 26.147 10.1607 26.9641 11.169C28.1702 12.7202 29.8822 12.759 30.1157 12.759H30.1546C30.1546 12.759 29.7655 14 28.5982 14H28.5593C28.0146 14 27.7422 13.7673 27.7422 13.7673C27.7422 13.7673 27.5088 16.6371 29.6099 17.4903Z" fill="black"/>
<path d="M26.108 8.8421C26.6527 9.11357 26.9251 9.50138 27.1974 9.85041C27.4698 10.1607 27.7032 10.4709 28.0923 10.626C28.248 10.6648 28.3647 10.7036 28.5203 10.7036C29.104 10.7036 29.6876 10.3546 29.9211 9.85041L30.1545 9.34626L29.6098 9.30748C29.5709 9.30748 28.8705 9.22991 28.0923 8.45429C27.781 8.14404 27.392 7.95013 26.964 7.95013C26.4581 7.95013 26.0691 8.2216 26.0301 8.2216L25.5632 8.53185L26.108 8.8421ZM27.0029 8.26038C27.2752 8.26038 27.5865 8.33795 27.8589 8.6482C28.7538 9.57894 29.6098 9.61772 29.6098 9.61772C29.4541 9.96675 29.0261 10.2382 28.5592 10.2382C28.4425 10.2382 28.3258 10.2382 28.248 10.1994C27.6254 10.0055 27.392 9.03601 26.3025 8.45429C26.2636 8.49307 26.5749 8.26038 27.0029 8.26038Z" fill="black"/>
<path d="M26.3415 13.8061C26.0302 11.2853 24.1625 9.42382 22.1004 8.29917C21.9058 8.18283 21.7502 8.10526 21.5556 8.0277C22.1782 8.14404 23.1898 8.14404 23.968 7.44598C23.968 7.44598 22.7618 8.33795 20.3105 7.52355C20.972 7.95014 22.2949 8.57064 23.5011 9.57895C26.536 12.2161 24.3571 14.8144 24.3571 14.8144C25.4465 13.6898 25.4855 12.4875 25.1742 11.4792C25.7578 12.41 26.108 13.5734 26.0691 15.0083C25.9913 17.0249 24.8629 18.8089 23.6956 20.205C23.112 20.903 22.9953 21.7175 22.9953 21.7175C22.9953 21.7175 23.2287 20.9806 23.8902 20.205C25.1353 18.7313 26.2247 17.2188 26.3804 15.0083C26.4971 15.3961 27.0418 16.5208 27.8978 16.9474C27.8978 16.9474 26.8084 16.3269 26.3415 13.8061Z" fill="black"/>
<path d="M10.272 23.2687C10.272 23.2687 10.0386 22.9196 9.99969 21.9889C9.92187 20.8642 9.49387 20.2437 9.06587 19.8559C9.18259 19.8171 9.29932 19.7396 9.37714 19.662C9.99969 19.1191 9.96078 18.4598 9.96078 18.421L9.92187 18.072H9.57168C8.63787 18.072 7.97641 17.7617 7.47059 17.18C7.35387 17.0249 7.23714 16.9086 7.15932 16.7534C7.43168 16.831 7.82078 16.9086 8.20987 16.9086C8.32659 16.9086 8.44332 16.9086 8.56005 16.9086C9.2215 16.8698 9.6495 16.482 9.68841 16.4044L10.0386 16.0554L9.61059 15.7839C8.67678 15.2022 7.74296 14.0775 8.48223 12.1385C8.94914 10.8587 10.0386 9.69526 11.7895 8.60939C12.3731 8.22158 12.7233 7.79499 12.7233 7.36839C12.7233 6.70911 12.1786 6.47643 11.7895 6.28252C11.595 6.20496 11.4004 6.08861 11.2837 5.97227C10.9724 5.62324 11.2448 4.92518 11.5171 4.53737L11.9062 4.07199L11.3226 3.95565C11.3226 3.95565 11.167 3.91687 10.8946 3.91687C10.4666 3.91687 9.61059 4.03321 8.91023 4.73127C8.32659 5.31299 8.24878 5.97227 8.28768 6.36008C8.24878 6.36008 8.17096 6.36008 8.13205 6.36008H8.05423C7.19823 6.36008 6.77023 5.42934 6.77023 5.39055L6.53678 4.80884L6.14769 5.31299C6.10878 5.35177 5.52514 6.04983 5.68078 6.98058C5.75859 7.60108 6.14768 8.10524 6.80914 8.53183C6.88696 8.57061 6.92587 8.60939 6.96478 8.64817C5.71968 9.03598 5.05823 9.92795 4.31896 10.8199L4.20223 10.9363C3.11278 12.4099 1.55641 12.4487 1.36187 12.4487H0.817139L0.972775 12.9529C0.972775 13.0304 1.47859 14.4653 2.87932 14.4653H2.95714C3.11278 14.4653 3.2295 14.4266 3.34623 14.4266C3.26841 15.2022 2.99605 16.6371 1.71205 17.18L1.32296 17.3352L1.55641 17.723C1.55641 17.723 2.02332 18.5374 3.11278 18.5374C3.57968 18.5374 3.96878 18.421 4.24114 18.2659C4.28005 18.6149 4.35787 19.0803 4.55241 19.5845C4.9415 20.7479 4.59132 21.6011 4.55241 21.6011L4.35787 22.0277L4.78587 22.144C4.82478 22.144 5.09714 22.2216 5.40841 22.2216C5.56405 22.2216 5.68078 22.2216 5.83641 22.1828C6.18659 22.1052 6.42005 21.9501 6.61459 21.795C6.73132 22.144 6.92587 22.5706 7.31496 22.9584C7.9375 23.5789 8.7935 23.8892 9.92187 23.8892H10.6222L10.272 23.2687ZM9.92187 23.4626C6.77023 23.4626 6.84805 20.7867 6.84805 20.7867C6.84805 20.7867 6.61459 21.6011 5.75859 21.795C5.64187 21.8338 5.52514 21.8338 5.44732 21.8338C5.17496 21.8338 4.90259 21.7562 4.90259 21.7562C4.90259 21.7562 5.3695 20.7867 4.90259 19.4293C4.5135 18.3047 4.59132 17.4903 4.59132 17.4903C4.59132 17.4903 4.16332 18.1108 3.11278 18.1496C2.25678 18.1496 1.86768 17.4903 1.86768 17.4903C3.96878 16.6371 3.77423 13.8061 3.77423 13.8061C3.77423 13.8061 3.50187 14 2.95714 14.0388H2.91823C1.75096 14.0388 1.36187 12.7978 1.36187 12.7978H1.40078C1.59532 12.7978 3.34623 12.759 4.55241 11.2077C5.3695 10.1994 5.99205 9.30745 7.31496 8.95842L7.43168 8.91964L7.47059 8.8033C7.5095 8.60939 7.35387 8.41549 7.0815 8.22158C5.29168 7.05814 6.49787 5.58446 6.49787 5.58446C6.49787 5.58446 7.00368 6.78668 8.13205 6.78668C8.17096 6.78668 8.17096 6.78668 8.20987 6.78668C8.32659 6.78668 8.48223 6.78668 8.59896 6.74789L8.7935 6.70911C8.7935 6.70911 8.48223 5.81715 9.26041 5.00274C9.84405 4.38224 10.5833 4.30468 10.9724 4.30468C11.167 4.30468 11.3226 4.34346 11.3226 4.34346C10.9335 4.84762 10.6611 5.7008 11.0891 6.24374C11.4782 6.70911 12.451 6.70911 12.451 7.40717C12.451 7.67864 12.1786 8.02767 11.7117 8.33792C10.272 9.22989 8.83241 10.4321 8.24878 12.0609C7.5095 14.0775 8.32659 15.3961 9.53278 16.1717C9.53278 16.1717 9.14369 16.5207 8.59896 16.5595C8.48223 16.5595 8.3655 16.5595 8.28768 16.5595C7.12041 16.5595 6.53678 16.0166 6.53678 16.0166C6.53678 16.0166 6.6535 16.7534 7.23714 17.4515C7.78187 18.072 8.52114 18.4598 9.61059 18.4598C9.61059 18.4598 9.6495 18.964 9.14369 19.4293C8.83241 19.7008 8.09314 19.8171 8.09314 19.8171C8.09314 19.8171 9.45496 20.0886 9.61059 22.0665C9.68841 23.1135 9.96078 23.4626 9.92187 23.4626Z" fill="black"/>
<path d="M2.91812 10.6648C3.07375 10.6648 3.22939 10.6261 3.34612 10.5873C3.73521 10.4709 4.00757 10.1607 4.24103 9.81165C4.51339 9.46262 4.82466 9.11359 5.33048 8.80334L5.87521 8.53188L5.36939 8.18285C5.33048 8.14406 4.94139 7.91138 4.43557 7.91138C4.00757 7.91138 3.61848 8.0665 3.30721 8.41553C2.52903 9.22994 1.82866 9.26872 1.78975 9.26872L1.28394 9.3075L1.51739 9.81165C1.75084 10.277 2.33448 10.6648 2.91812 10.6648ZM3.61848 8.687C3.89084 8.37675 4.20212 8.29919 4.47448 8.29919C4.86357 8.29919 5.17484 8.53188 5.17484 8.53188C4.08539 9.11359 3.85194 10.0443 3.22939 10.277C3.11266 10.3158 3.03484 10.3158 2.91812 10.3158C2.45121 10.3158 2.02321 10.0056 1.86757 9.69531C1.86757 9.65653 2.72357 9.57897 3.61848 8.687Z" fill="black"/>
<path d="M5.40832 15.0083C5.3305 13.5734 5.71959 12.4488 6.30323 11.4792C5.99195 12.4488 6.03086 13.6898 7.12032 14.8144C7.12032 14.8144 4.98032 12.2548 7.97632 9.57895C9.1825 8.57064 10.5054 7.95014 11.1669 7.52355C8.71559 8.33795 7.50941 7.44598 7.50941 7.44598C8.28759 8.10526 9.29923 8.10526 9.92177 8.0277C9.76614 8.10526 9.57159 8.18283 9.37704 8.29917C7.31486 9.42382 5.44723 11.2853 5.13595 13.8061V13.7673C4.66904 16.2881 3.57959 16.9086 3.57959 16.9086C4.43559 16.482 4.98032 15.3961 5.09704 14.9695C5.25268 17.1801 6.30323 18.6925 7.58723 20.1662C8.24868 20.9418 8.48214 21.6787 8.48214 21.6787C8.48214 21.6787 8.36541 20.8255 7.78177 20.1662C6.6145 18.8089 5.48614 17.0637 5.40832 15.0083Z" fill="black"/>
<path d="M15.0188 9.8504V10.3546C15.2133 10.1607 15.5246 10.1994 15.5246 10.1994V10.9363C15.5246 10.9363 15.5246 11.2853 15.369 11.4404H15.7192H16.0693C15.9526 11.2853 15.9137 10.9363 15.9137 10.9363V10.1994C15.9137 10.1994 16.2639 10.1607 16.4195 10.3546V9.8504H15.6803H15.0188Z" fill="black"/>
<path d="M14.7077 6.86427C14.9411 7.05818 15.0968 7.09696 15.0968 7.09696L15.1746 7.13574V6.67036L14.3186 6.32133C14.3186 6.28255 14.3186 6.55402 14.7077 6.86427Z" fill="black"/>
<path d="M16.7699 6.86425C17.159 6.554 17.159 6.28253 17.159 6.28253L16.303 6.63156V7.09694L16.3808 7.05816C16.3808 7.05816 16.5364 7.01937 16.7699 6.86425Z" fill="black"/>
<path d="M18.3263 4.92521C18.3263 4.18837 17.1201 3.56787 15.7583 3.56787C14.3965 3.56787 13.1903 4.22715 13.1903 4.92521L13.2292 5.11912L13.7739 8.22161L13.2292 8.53186L11.7896 9.30748C11.7896 9.30748 11.4783 9.46261 11.3227 9.57895C10.7779 9.96676 10.6612 10.4709 10.9725 10.7036C11.0503 10.277 11.4005 9.81164 12.0619 9.81164C12.5288 9.81164 12.879 10.0443 13.1903 10.4321C13.2681 10.5097 13.3459 10.626 13.3848 10.7424C13.4627 10.8587 13.5405 10.9751 13.6183 11.0914H9.99976C10.2721 11.6344 10.5056 12.1773 10.5056 12.7978V20.7479C10.5056 22.687 11.9841 23.579 13.6183 23.579C14.8634 23.579 15.019 23.5402 15.7194 24.1995C16.4198 23.5014 16.5754 23.579 17.8205 23.579C19.4158 23.579 20.9332 22.6482 20.9332 20.7479V12.759C20.9332 12.1385 21.1667 11.5956 21.439 11.0526H17.8205C17.8983 10.9363 17.9761 10.8199 18.0539 10.7036C18.1318 10.5873 18.2096 10.5097 18.2485 10.3934C18.5208 10.0443 18.9099 9.77286 19.3768 9.77286C20.0383 9.77286 20.3885 10.2382 20.4663 10.6648C20.7776 10.4321 20.6608 9.8892 20.1161 9.54017C19.9605 9.42383 19.6492 9.2687 19.6492 9.2687L18.2874 8.49308L17.7427 8.18283L18.2874 5.08034L18.3263 4.92521ZM13.6961 5.27424L15.6027 5.93352V8.91967L14.2019 8.14405L13.6961 5.27424ZM14.0852 11.5568C14.3965 11.867 14.7078 12.0609 14.9801 12.1773C14.9412 12.3324 14.9023 12.6427 15.019 12.9529C15.1358 13.1856 15.3303 13.3795 15.6416 13.5346C15.6805 13.8449 15.875 14.3103 16.4198 14.5042C16.1863 14.7368 15.9528 14.9695 15.875 15.0471L13.6961 15.0083C13.6572 14.9695 13.5794 14.9308 13.5405 14.8532C13.5405 14.8532 13.5405 14.8532 13.5405 14.8144L13.8907 14.8532C13.8907 14.8532 13.8907 14.8532 13.9296 14.8532C14.0074 14.8532 14.0463 14.8144 14.0852 14.7368C14.0852 14.6593 14.0463 14.5817 13.9685 14.5817L13.5405 14.5042L14.0074 12.8366L13.5405 11.867L12.8012 12.6427L12.7623 14.3878L12.2565 14.3103C12.1787 14.3103 12.1008 14.349 12.1008 14.4266C12.1008 14.5042 12.1398 14.5817 12.2176 14.5817L12.4121 14.6205C12.3343 14.6593 12.2954 14.6981 12.2954 14.6981L12.2176 14.7368V14.7756C12.1008 15.2798 12.3732 15.7064 12.6456 15.9391V16.0166C12.6456 16.0942 12.6456 16.1717 12.6845 16.2105C12.7234 16.2881 12.8012 16.3269 12.879 16.3269H12.9179C13.0347 16.3269 13.1514 16.2493 13.1903 16.0942C13.307 16.0942 13.3848 16.0942 13.4627 16.0942H13.5016L16.3419 16.5983L16.3808 16.5596C16.6143 16.4044 17.4703 15.7839 17.7427 15.5513C17.8205 15.6288 17.8983 15.6676 18.015 15.7452C17.9372 16.0554 17.8983 16.5208 18.2874 16.9086H11.0503V12.759C11.0503 12.3712 10.9336 11.9446 10.7779 11.5568H14.0852ZM17.587 15.3961C17.3147 15.59 16.5754 16.133 16.303 16.3269L13.6961 15.8615C13.6961 15.8227 13.6961 15.8227 13.6961 15.7839C13.735 15.6676 13.7739 15.4737 13.7739 15.241L15.9528 15.2798L15.9918 15.241C16.0307 15.2022 16.731 14.5429 17.0812 14.1551C17.159 14.2715 17.2758 14.349 17.3925 14.4654C17.3925 14.7368 17.3925 15.0859 17.587 15.3961ZM13.2681 14.9308C13.3459 15.0471 13.4238 15.1247 13.5016 15.2022C13.5016 15.3186 13.5016 15.5125 13.4627 15.6676C13.4627 15.7064 13.4627 15.7452 13.4238 15.7839C13.4238 15.8227 13.4238 15.8227 13.4238 15.8227C13.307 15.8227 13.0736 15.8227 12.9179 15.7452C12.7234 15.6676 12.4121 15.2798 12.4899 14.892C12.5678 14.8532 12.8012 14.7368 12.9568 14.7368C13.1125 14.7368 13.1903 14.7756 13.2681 14.9308ZM12.9958 14.4266L13.0347 12.759L13.4238 12.3712L13.6572 12.8754L13.1903 14.4654L12.9958 14.4266ZM17.587 23.036C17.4314 23.036 17.3147 23.036 17.1979 23.036L17.5092 22.1053C17.5481 21.9889 17.3147 21.795 17.1979 21.6399C17.3536 21.7175 17.7427 21.9501 17.9372 22.0277C17.8983 22.0665 17.587 23.036 17.587 23.036ZM18.5598 21.9501L18.3652 22.9972C18.2485 22.9972 18.0928 23.036 17.9761 23.036L18.1707 22.0277C18.2485 21.7175 17.4314 21.6399 17.0423 21.0582C16.8478 21.2909 16.4976 21.3296 16.1085 21.3296C15.7583 21.3296 15.447 21.2909 15.2525 21.2521C15.2136 21.2521 15.1358 21.2521 15.0968 21.2521C14.9801 21.2521 14.8634 21.2909 14.7856 21.4072L14.7467 21.5236L13.6183 21.2133L13.3459 21.6787C13.307 21.7562 13.307 21.795 13.3848 21.8726L13.4627 21.9501C13.4238 22.1053 13.1903 22.338 13.1903 22.338L13.0347 22.144C12.9179 21.9889 12.9179 21.7175 13.0736 21.4848L13.5016 20.7479L14.4354 20.8643L14.2798 20.554C14.0852 20.1274 14.3965 19.5845 14.3965 19.2355C14.3965 19.313 14.2798 19.3518 14.2019 19.3518C14.1241 19.3518 14.0074 19.3518 13.9296 19.3518C13.8907 19.3518 13.8907 19.3518 13.8518 19.3518L13.6183 19.5069L13.4238 19.313C13.3848 19.2742 13.3848 19.1967 13.4627 19.1579L13.9296 18.6537L13.3848 18.0332L14.163 18.4211L14.3965 18.1496C14.4743 18.2272 14.4354 18.3823 14.4354 18.3823C14.6688 18.3823 15.3303 18.7701 15.3692 19.6233C15.3692 19.6621 15.3692 19.6621 15.3692 19.7008C15.3692 19.7008 15.3692 19.7008 15.3692 19.7396C15.4081 19.8172 15.5638 19.9723 15.7194 19.9723L16.7699 20.0886C16.8867 20.0886 17.1201 19.9723 17.3925 19.9723C17.5481 19.9723 17.7427 20.0111 17.9372 20.1274C17.9372 20.1274 18.015 20.0499 18.1707 20.0499H18.2096C18.6765 20.0499 18.871 20.4765 19.1434 20.8255C19.3379 21.097 19.5714 21.4848 19.5714 21.4848C19.4936 21.6011 19.3768 21.6399 19.2601 21.6399C19.2212 21.6399 19.1823 21.6399 19.1434 21.6399C18.6376 21.5623 18.5598 20.5152 18.2874 20.4377H18.2485C18.1707 20.4377 18.1318 20.5152 18.1318 20.5152C18.2485 20.8643 18.1707 21.0194 18.3263 21.2909C18.443 21.4848 18.6376 21.6399 18.7154 21.7562C18.5987 21.6787 18.5598 21.8338 18.5598 21.9501ZM12.879 20.9806L12.9179 21.097C12.879 21.2133 12.5288 21.3684 12.5288 21.3684L12.451 21.1745C12.3732 20.9806 12.3732 20.6704 12.6456 20.4765L13.2292 20.1274L13.8518 20.2438C13.8518 20.4377 13.9685 20.5928 13.9685 20.5928L13.307 20.4765L12.9179 20.7479C12.879 20.7867 12.879 20.9031 12.879 20.9806ZM18.6376 22.9585L18.8321 22.0277C18.8321 21.9889 18.871 21.9114 18.871 21.8726C18.9099 21.9114 18.9878 21.9114 19.0267 21.9114C19.1045 21.9114 19.1434 21.9114 19.2212 21.9114C19.4936 21.9114 19.6492 21.7562 19.7659 21.6399L19.9216 21.4848L19.8048 21.2909C19.8048 21.2909 19.5325 20.8643 19.3379 20.5928C19.299 20.554 19.2601 20.4765 19.2212 20.4377C18.9878 20.1274 18.7154 19.7008 18.1707 19.7008H18.1318C18.0539 19.7008 17.9761 19.7396 17.8983 19.7396C17.7427 19.6621 17.5481 19.6233 17.3536 19.6233C17.1201 19.6233 16.9256 19.7008 16.8088 19.7396C16.7699 19.7784 16.731 19.7784 16.6921 19.7784L15.6805 19.6621C15.6805 19.6621 15.6416 19.6233 15.5638 19.5845L15.7972 19.5069C15.7194 18.7701 15.019 18.3047 14.6299 18.1496C14.6299 18.072 14.591 17.9945 14.5132 17.9557L14.2798 17.7618L14.0852 17.9945L14.0074 18.072L12.5678 17.4903L13.5016 18.6537L13.1514 19.1967C13.0347 19.3518 13.1514 19.4681 13.1514 19.4681L13.5405 19.7396L13.9296 19.5845H13.9685C13.9685 19.6621 13.9296 19.8947 13.8907 19.9335L13.2292 19.856L12.4899 20.2438C12.1008 20.5152 12.0619 20.9806 12.2176 21.2521L12.2954 21.4072L12.4121 21.6399L12.6456 21.5236C12.5678 21.795 12.6067 22.1053 12.7623 22.2604L12.9179 22.4543L13.1125 22.7258L13.3459 22.4931C13.4238 22.4155 13.6183 22.1828 13.6961 21.9889L13.735 21.8338L13.6183 21.7175V21.6787L13.735 21.4848L14.6299 21.6787L14.8245 21.7175L14.9412 21.5236L14.9801 21.446C14.9801 21.4072 14.9801 21.4072 15.019 21.4072C15.0579 21.4072 15.0968 21.4072 15.1358 21.4072C15.4859 21.4848 15.7972 21.4848 16.0696 21.4848C16.3419 21.4848 16.4976 21.4848 16.6921 21.4072C16.6921 21.4072 17.159 21.9501 17.1979 21.9889L16.8867 22.8809V22.9197C16.3419 22.9585 16.0696 23.0748 15.7194 23.4238C15.2525 22.9585 14.9023 22.9197 13.6183 22.9197C12.1008 22.9197 11.0503 22.0277 11.0503 20.5928V17.1025H20.3885V20.5928C20.3885 21.8726 19.727 22.687 18.6376 22.9585ZM20.6608 11.5568C20.5052 11.9446 20.3885 12.3324 20.3885 12.759V15.3573C19.8438 15.2798 19.7659 14.6593 19.7659 14.6593V14.5429H19.6492C19.4158 14.5042 19.2601 14.4266 19.1045 14.3103C18.8321 14.0388 18.8321 13.6122 18.8321 13.6122C18.8321 13.651 18.5208 14.0388 18.871 14.5042C19.0267 14.6981 19.2212 14.8144 19.4936 14.8532C19.5714 15.1634 19.8048 15.6288 20.3885 15.7064V16.9862H18.7543C18.015 16.5596 18.3263 15.8615 18.3263 15.8227L18.4041 15.6676L18.2874 15.5513C17.4703 15.241 17.7038 14.4654 17.7038 14.4266L17.7427 14.3103L17.6259 14.2715C16.9645 13.9612 17.0423 13.1468 17.0423 13.108C16.8478 13.2632 16.7699 13.6122 16.8867 13.9612C16.8088 14.0388 16.6921 14.1551 16.6143 14.2715C15.9528 14.0776 15.9528 13.4183 15.9528 13.4183V13.3019L15.875 13.2632C15.6027 13.1468 15.4081 13.0305 15.3303 12.7978C15.2136 12.5651 15.2525 12.3324 15.2914 12.2161C15.3692 12.2161 15.447 12.2549 15.5248 12.2549C15.6027 12.2549 15.6805 12.2549 15.7583 12.2549C15.8361 12.2549 15.9139 12.2549 15.9918 12.2549C16.4198 12.2161 16.8867 12.0222 17.3925 11.518H20.6608V11.5568ZM18.1318 8.91967L18.7543 9.30748L18.9099 9.38505C18.5598 9.50139 18.2874 9.65651 18.0539 9.8892C18.0539 9.8892 18.0539 9.8892 18.015 9.92798C17.9761 9.96676 17.8983 10.0443 17.8594 10.1219C17.8594 10.1219 17.8594 10.1607 17.8205 10.1607C17.7816 10.2382 17.7427 10.277 17.6648 10.3546C17.6648 10.3546 17.6648 10.3934 17.6259 10.3934C17.587 10.4709 17.5092 10.5485 17.4703 10.626C17.0034 11.4017 16.303 11.867 15.6416 11.867C14.9801 11.867 14.2798 11.4017 13.8128 10.626C13.7739 10.5485 13.6961 10.4709 13.6572 10.3934L13.6183 10.3546C13.5794 10.277 13.5405 10.2382 13.5016 10.1607L13.4627 10.1219C13.4238 10.0443 13.3459 10.0055 13.307 9.92798C13.307 9.92798 13.307 9.92798 13.2681 9.8892C13.0347 9.65651 12.7623 9.46261 12.4121 9.38505L12.5678 9.30748L13.1903 8.91967L13.8518 8.53186L15.6027 9.50139L17.3536 8.53186L18.1318 8.91967ZM17.2758 8.14405L15.875 8.88089V5.89474L17.7816 5.23546L17.2758 8.14405ZM15.7194 5.58449L13.6572 4.77009C13.8518 4.34349 14.6299 3.99446 15.7194 3.99446C16.8088 3.99446 17.6259 4.34349 17.7816 4.77009L15.7194 5.58449Z" fill="black"/>
<path d="M47.3524 15.4737C47.4691 15.2797 47.6247 15.0471 47.7415 14.8532H47.8193V19.4293H49.8815V11.6731H47.8582L45.5237 15.2022C45.4069 15.3961 45.2513 15.59 45.1346 15.7839C45.0178 15.9778 44.8622 16.1717 44.7455 16.4044H44.6677V11.6731H42.6055V19.4293H44.6677C45.0567 18.8864 45.4458 18.3435 45.8349 17.7617C46.224 17.18 46.5742 16.6371 46.9633 16.0941C47.08 15.9002 47.2357 15.7063 47.3524 15.4737Z" fill="white"/>
<path d="M53.967 16.2105H57.0797V19.4293H59.1419V11.6731H57.0797V14.6205H53.967V11.6731H51.9048V19.4293H53.967V16.2105Z" fill="white"/>
<path d="M67.7409 16.9473C67.7409 16.1717 67.4685 15.5512 66.9238 15.0858C66.379 14.6592 65.6398 14.4266 64.7059 14.4266H63.1885V11.6731H61.0874V19.4293H64.7449C65.6398 19.4293 66.3401 19.2354 66.8849 18.8476C67.4685 18.4598 67.7409 17.8005 67.7409 16.9473ZM65.3285 17.6454C65.1339 17.8005 64.8616 17.8781 64.5114 17.8781H63.1496V15.9778H64.4725C64.8227 15.9778 65.095 16.0554 65.2896 16.2105C65.4841 16.3656 65.6009 16.5983 65.6009 16.9086C65.6398 17.2576 65.5619 17.5291 65.3285 17.6454Z" fill="white"/>
<path d="M94.5103 18.421C94.8605 18.072 95.1718 17.6454 95.3663 17.18C95.5609 16.6759 95.6776 16.1329 95.6776 15.5124C95.6776 14.9307 95.5609 14.3878 95.3663 13.9224C95.1718 13.457 94.8605 13.0304 94.5103 12.6814C94.1601 12.3324 93.6932 12.0609 93.1874 11.867C92.6816 11.6731 92.1369 11.5567 91.5532 11.518V8.60938L89.6078 9.34622V11.518C89.0241 11.5567 88.4794 11.6731 87.9736 11.867C87.4678 12.0609 87.0398 12.3324 86.6507 12.6814C86.2616 13.0304 85.9892 13.4182 85.7947 13.8836C85.6001 14.349 85.4834 14.8919 85.4834 15.4349C85.4834 16.0554 85.6001 16.5983 85.7947 17.1024C85.9892 17.6066 86.2616 18.0332 86.6507 18.3822C87.0009 18.7313 87.4678 19.0027 87.9736 19.1966C88.4794 19.3905 89.063 19.5069 89.6856 19.5457V22.8808L91.6699 22.144V19.5844C92.2536 19.5457 92.7983 19.4293 93.3041 19.2354C93.6932 19.0415 94.1212 18.77 94.5103 18.421ZM89.6078 18.072C89.2965 18.0332 89.0241 17.9944 88.7907 17.8781C88.5183 17.7617 88.2849 17.6066 88.0903 17.3739C87.8958 17.18 87.7401 16.9085 87.6234 16.5983C87.5067 16.288 87.4678 15.939 87.4678 15.5512C87.4678 14.8919 87.6623 14.3102 88.0514 13.8448C88.4405 13.3795 88.9463 13.1468 89.6467 13.0692V18.072H89.6078ZM92.3703 17.8781C92.0979 17.9944 91.8645 18.072 91.5532 18.072V13.0692C92.2536 13.108 92.7594 13.3795 93.1485 13.8448C93.4987 14.3102 93.6932 14.8919 93.6932 15.5512C93.6932 15.939 93.6154 16.3268 93.4987 16.5983C93.3819 16.9085 93.2263 17.18 93.0318 17.3739C92.8761 17.6066 92.6427 17.7617 92.3703 17.8781Z" fill="white"/>
<path d="M106.689 17.18C106.883 16.6759 107 16.1329 107 15.5124C107 14.9307 106.883 14.3878 106.689 13.9224C106.494 13.457 106.183 13.0304 105.833 12.6814C105.482 12.3324 105.016 12.0609 104.51 11.867C104.004 11.6731 103.459 11.5567 102.876 11.518V8.60938L100.93 9.34622V11.518C100.346 11.5567 99.8018 11.6731 99.2959 11.867C98.7901 12.0609 98.3621 12.3324 97.973 12.6814C97.5839 13.0304 97.3116 13.4182 97.0781 13.8836C96.8836 14.349 96.7668 14.8919 96.7668 15.4349C96.7668 16.0554 96.8447 16.5983 97.0781 17.1024C97.2727 17.6066 97.545 18.0332 97.9341 18.3822C98.2843 18.7313 98.7512 19.0027 99.257 19.1966C99.7628 19.3905 100.346 19.5069 100.969 19.5457V22.8808L102.953 22.144V19.5844C103.537 19.5457 104.082 19.4293 104.588 19.2354C105.093 19.0415 105.521 18.77 105.872 18.421C106.183 18.072 106.455 17.6454 106.689 17.18ZM100.93 18.072C100.619 18.0332 100.346 17.9944 100.113 17.8781C99.8407 17.7617 99.6072 17.6066 99.4127 17.3739C99.2181 17.18 99.0625 16.9085 98.9458 16.5983C98.829 16.288 98.7901 15.939 98.7901 15.5512C98.7901 14.8919 98.9847 14.3102 99.3738 13.8448C99.7628 13.3795 100.269 13.1468 100.969 13.0692V18.072H100.93ZM104.821 16.5983C104.704 16.9085 104.549 17.18 104.354 17.3739C104.16 17.5678 103.926 17.7617 103.693 17.8781C103.42 17.9944 103.187 18.072 102.876 18.072V13.0692C103.576 13.108 104.082 13.3795 104.471 13.8448C104.821 14.3102 105.016 14.8919 105.016 15.5512C105.016 15.939 104.938 16.3268 104.821 16.5983Z" fill="white"/>
<path d="M34.1233 10.1994H37.1582V19.4293H39.3371V10.1994H42.2553V8.37671H34.1233V10.1994Z" fill="white"/>
<path d="M76.3786 11.7119H74.0051L71.2426 15.0083V11.6731H69.1804V19.4293H71.2426V15.6676L73.9662 19.4293H76.4175L73.3437 15.2797L76.3786 11.7119Z" fill="white"/>
<path d="M83.3433 12.6426C82.9931 12.2936 82.604 12.0221 82.1371 11.8282C81.6702 11.6343 81.1644 11.5568 80.6196 11.5568C80.0749 11.5568 79.5691 11.6343 79.1022 11.8282C78.6353 12.0221 78.2462 12.2936 77.896 12.6039C77.5458 12.9529 77.3124 13.3795 77.1178 13.8836C76.9233 14.3878 76.8455 14.9695 76.8455 15.59C76.8455 16.2105 76.9233 16.7534 77.1178 17.2576C77.3124 17.7617 77.5458 18.1883 77.896 18.5374C78.2073 18.8864 78.6353 19.1579 79.0633 19.3518C79.5302 19.5457 80.036 19.6232 80.6196 19.6232C81.1644 19.6232 81.6702 19.5457 82.1371 19.3518C82.604 19.1579 82.9931 18.8864 83.3433 18.5374C83.6934 18.1883 83.9269 17.7617 84.1214 17.2576C84.316 16.7534 84.3938 16.1717 84.3938 15.5512C84.3938 14.9307 84.316 14.3878 84.1214 13.8836C83.9269 13.4183 83.6545 12.9917 83.3433 12.6426ZM82.176 16.5208C82.0982 16.7922 81.9814 17.0637 81.8647 17.2576C81.7091 17.4903 81.5535 17.6454 81.32 17.7617C81.0865 17.8781 80.8531 17.9557 80.5807 17.9557C80.036 17.9557 79.608 17.7617 79.2967 17.3352C78.9855 16.9086 78.8687 16.3268 78.8687 15.5512C78.8687 14.8919 79.0244 14.3102 79.2967 13.8836C79.5691 13.457 79.9971 13.2244 80.5418 13.2244C81.1255 13.2244 81.5534 13.457 81.8647 13.8836C82.176 14.3102 82.2927 14.8919 82.2927 15.59C82.2927 15.939 82.2538 16.2105 82.176 16.5208Z" fill="white"/>
</svg>
