<svg width="40" height="40" viewBox="0 0 40 40" fill="none" xmlns="http://www.w3.org/2000/svg">
<path d="M8.42102 16.5264L9.78944 17.8948L14.421 22.5264L15.7894 21.0527L12.2105 17.4737H21.3684C23.5789 17.4737 25.3684 19.2632 25.3684 21.4737V29.4737H27.3684V21.4737C27.3684 18.2106 24.7368 15.4737 21.3684 15.4737H12.2105L15.7894 11.8948L14.421 10.5264L8.42102 16.5264Z" fill="#FFDC2E"/>
<path d="M20 40C8.94737 40 0 31.0526 0 20C0 8.94737 8.94737 0 20 0C31.0526 0 40 8.94737 40 20C40 31.0526 31.0526 40 20 40ZM20 2.10526C10.1053 2.10526 2.10526 10.1053 2.10526 20C2.10526 29.8947 10.1053 37.8947 20 37.8947C29.8947 37.8947 37.8947 29.8947 37.8947 20C37.8947 10.1053 29.8947 2.10526 20 2.10526Z" fill="#FFDC2E"/>
</svg>
